<svg width="25" height="24" viewBox="0 0 25 24" fill="none" xmlns="http://www.w3.org/2000/svg">
<g id="User Interface / Paper Plane">
<path id="Vector" d="M20.84 9.32013L6.84 2.32013C6.28749 2.04514 5.66362 1.94724 5.05344 2.03978C4.44326 2.13232 3.87646 2.4108 3.43033 2.83724C2.98421 3.26369 2.68046 3.81735 2.5605 4.42274C2.44054 5.02813 2.5102 5.65578 2.76 6.22013L5.16 11.5901C5.21446 11.72 5.24251 11.8593 5.24251 12.0001C5.24251 12.1409 5.21446 12.2803 5.16 12.4101L2.76 17.7801C2.5567 18.2368 2.47076 18.7371 2.50998 19.2355C2.5492 19.7339 2.71235 20.2145 2.98459 20.6338C3.25682 21.0531 3.62953 21.3977 4.06883 21.6363C4.50812 21.875 5.00009 22 5.5 22.0001C5.96823 21.9955 6.42949 21.8861 6.85 21.6801L20.85 14.6801C21.3466 14.4303 21.764 14.0474 22.0557 13.5742C22.3474 13.101 22.5018 12.556 22.5018 12.0001C22.5018 11.4442 22.3474 10.8993 22.0557 10.4261C21.764 9.95282 21.3466 9.56994 20.85 9.32013H20.84ZM19.95 12.8901L5.95 19.8901C5.76617 19.9784 5.55973 20.0084 5.35839 19.976C5.15705 19.9436 4.97041 19.8504 4.82352 19.709C4.67662 19.5675 4.57648 19.3845 4.53653 19.1846C4.49658 18.9846 4.51873 18.7772 4.6 18.5901L6.99 13.2201C7.02094 13.1484 7.04766 13.075 7.07 13.0001H13.96C14.2252 13.0001 14.4796 12.8948 14.6671 12.7072C14.8546 12.5197 14.96 12.2653 14.96 12.0001C14.96 11.7349 14.8546 11.4806 14.6671 11.293C14.4796 11.1055 14.2252 11.0001 13.96 11.0001H7.07C7.04766 10.9253 7.02094 10.8518 6.99 10.7801L4.6 5.41013C4.51873 5.22309 4.49658 5.01568 4.53653 4.8157C4.57648 4.61572 4.67662 4.43273 4.82352 4.29128C4.97041 4.14982 5.15705 4.05666 5.35839 4.02428C5.55973 3.9919 5.76617 4.02186 5.95 4.11013L19.95 11.1101C20.1138 11.194 20.2513 11.3215 20.3473 11.4786C20.4433 11.6356 20.494 11.8161 20.494 12.0001C20.494 12.1842 20.4433 12.3647 20.3473 12.5217C20.2513 12.6787 20.1138 12.8062 19.95 12.8901Z" fill="white"/>
</g>
</svg>
